<?xml version="1.0" encoding="UTF-8" standalone="no"?>
<!-- Created with Inkscape (http://www.inkscape.org/) -->

<svg
   version="1.1"
   id="svg2"
   width="333.33334"
   height="133.33333"
   viewBox="0 0 333.33334 133.33333"
   sodipodi:docname="Red Hills Rectangle Option 2.ai"
   xmlns:inkscape="http://www.inkscape.org/namespaces/inkscape"
   xmlns:sodipodi="http://sodipodi.sourceforge.net/DTD/sodipodi-0.dtd"
   xmlns="http://www.w3.org/2000/svg"
   xmlns:svg="http://www.w3.org/2000/svg">
  <defs
     id="defs6">
    <clipPath
       clipPathUnits="userSpaceOnUse"
       id="clipPath16">
      <path
         d="M 0,100 H 250 V 0 H 0 Z"
         id="path14" />
    </clipPath>
  </defs>
  <sodipodi:namedview
     id="namedview4"
     pagecolor="#ffffff"
     bordercolor="#000000"
     borderopacity="0.25"
     inkscape:showpageshadow="2"
     inkscape:pageopacity="0.0"
     inkscape:pagecheckerboard="0"
     inkscape:deskcolor="#d1d1d1" />
  <g
     id="g8"
     inkscape:groupmode="layer"
     inkscape:label="Red Hills Rectangle Option 2"
     transform="matrix(1.3333333,0,0,-1.3333333,0,133.33333)">
    <g
       id="g10">
      <g
         id="g12"
         clip-path="url(#clipPath16)">
        <g
           id="g18"
           transform="translate(184.8163,68.7848)">
          <path
             d="M 0,0 C 0.144,-0.049 0.219,-0.096 0.294,-0.096 1.548,-0.1 2.807,-0.16 4.057,-0.086 6.571,0.064 8.333,1.488 9.043,3.825 9.39,4.97 9.412,6.14 9.291,7.309 c -0.32,3.073 -2.497,5.036 -5.586,5.075 -0.928,0.012 -1.855,0.002 -2.783,0.003 -0.29,0 -0.581,0 -0.922,0 z M -8.183,-6.909 V 19.15 c 0.19,0.025 0.345,0.065 0.501,0.065 4.281,-0.007 8.564,0.035 12.844,-0.048 2.462,-0.048 4.783,-0.761 6.873,-2.101 3.126,-2.005 4.904,-4.882 5.416,-8.545 0.348,-2.49 0.232,-4.956 -0.644,-7.332 -1.518,-4.116 -4.554,-6.562 -8.736,-7.606 -1.283,-0.32 -2.636,-0.472 -3.96,-0.494 -3.899,-0.065 -7.799,-0.027 -11.699,-0.027 -0.163,0 -0.326,0.015 -0.595,0.029"
             style="fill:#ffffff;fill-opacity:1;fill-rule:nonzero;stroke:none"
             id="path20" />
        </g>
        <g
           id="g22"
           transform="translate(130.9294,75.1522)">
          <path
             d="M 0,0 C 0.792,-0.152 3.352,-0.145 4.018,-0.001 5.434,0.308 6.207,1.115 6.364,2.545 6.414,2.994 6.359,3.469 6.27,3.916 6.068,4.935 5.448,5.645 4.443,5.908 3.008,6.282 1.541,6.185 0.081,6.038 0.059,6.036 0.04,6.005 0,5.971 Z m -0.039,-6.72 v -6.434 c -0.652,-0.182 -7.081,-0.228 -8.178,-0.072 v 25.997 c 0.184,0.03 0.339,0.077 0.493,0.076 4.174,-0.006 8.349,0.021 12.523,-0.044 1.93,-0.03 3.771,-0.555 5.442,-1.561 2.585,-1.558 3.977,-3.871 4.333,-6.851 0.166,-1.4 0.097,-2.782 -0.246,-4.138 -0.542,-2.148 -1.743,-3.853 -3.601,-5.082 -0.201,-0.133 -0.396,-0.276 -0.67,-0.468 1.675,-2.633 3.335,-5.242 5.058,-7.951 -0.294,-0.027 -0.469,-0.057 -0.644,-0.057 -2.483,-0.003 -4.966,0.012 -7.449,-0.014 -0.482,-0.006 -0.732,0.178 -0.97,0.563 -1.117,1.809 -2.279,3.591 -3.383,5.407 C 2.373,-6.863 2.037,-6.663 1.482,-6.712 1.024,-6.752 0.559,-6.72 -0.039,-6.72"
             style="fill:#ffffff;fill-opacity:1;fill-rule:nonzero;stroke:none"
             id="path24" />
        </g>
        <g
           id="g26"
           transform="translate(171.4849,68.4771)">
          <path
             d="m 0,0 v -6.575 h -20.107 c -0.181,0.578 -0.262,24.412 -0.088,25.944 0.02,0.021 0.038,0.042 0.058,0.06 0.02,0.018 0.04,0.045 0.063,0.048 0.162,0.02 0.324,0.048 0.486,0.048 6.274,-0.002 12.548,-0.006 18.821,-0.012 0.077,0 0.153,-0.04 0.341,-0.093 0.027,-2.09 0.009,-4.201 0.011,-6.412 -0.37,-0.021 -0.685,-0.052 -0.999,-0.053 -3.246,-0.003 -6.492,-10e-4 -9.738,-0.004 -0.319,-0.001 -0.638,-0.032 -1.01,-0.052 V 9.836 h 10.185 c 0.209,-0.704 0.23,-5.488 0.036,-6.349 H -12.16 V 0 Z"
             style="fill:#ffffff;fill-opacity:1;fill-rule:nonzero;stroke:none"
             id="path28" />
        </g>
        <g
           id="g30"
           transform="translate(45.8776,8.6135)">
          <path
             d="m 0,0 h -32.477 c -0.021,0.243 -0.054,0.469 -0.059,0.695 -0.061,2.583 -0.115,5.166 -0.178,7.749 -0.074,3.068 -0.154,6.136 -0.232,9.204 -0.123,4.777 -0.248,9.554 -0.37,14.33 -0.08,3.088 -0.157,6.175 -0.235,9.263 -0.033,1.279 -0.064,2.559 -0.098,3.914 0.257,-0.061 0.456,-0.1 0.65,-0.156 4.352,-1.259 8.246,-3.396 11.799,-6.176 4.203,-3.289 7.699,-7.232 10.676,-11.641 4.523,-6.701 7.743,-13.98 9.577,-21.857 0.378,-1.623 0.615,-3.278 0.914,-4.92 C -0.012,0.293 -0.014,0.176 0,0"
             style="fill:#ffffff;fill-opacity:1;fill-rule:nonzero;stroke:none"
             id="path32" />
        </g>
        <g
           id="g34"
           transform="translate(115.0654,7.905)">
          <path
             d="m 0,0 h -32.529 c 0.084,0.606 0.148,1.176 0.243,1.741 0.867,5.158 2.401,10.116 4.507,14.9 2.656,6.033 6.059,11.597 10.47,16.52 3.081,3.439 6.547,6.418 10.565,8.725 2.299,1.321 4.714,2.377 7.269,3.1 0.182,0.051 0.368,0.09 0.621,0.152 C 0.763,30.069 0.382,15.064 0,0"
             style="fill:#ffffff;fill-opacity:1;fill-rule:nonzero;stroke:none"
             id="path36" />
        </g>
        <g
           id="g38"
           transform="translate(116.7741,64.8233)">
          <path
             d="m 0,0 c -0.992,-0.266 -1.953,-0.5 -2.901,-0.782 -6.564,-1.949 -12.375,-5.274 -17.607,-9.65 -3.594,-3.006 -6.773,-6.408 -9.63,-10.116 -0.126,-0.163 -0.259,-0.32 -0.475,-0.585 0.045,0.746 0.075,1.357 0.12,1.966 0.098,1.336 0.194,2.673 0.308,4.008 0.314,3.695 0.626,7.39 0.964,11.083 0.065,0.712 0.218,1.42 0.372,2.12 0.433,1.969 1.63,3.455 3.098,4.75 1.063,0.938 2.306,1.587 3.64,2.037 1.912,0.646 3.844,1.23 5.763,1.855 2.516,0.82 4.983,1.751 7.232,3.181 1.646,1.047 3.197,2.21 4.539,3.634 0.28,0.297 0.544,0.609 0.803,0.924 1.226,1.486 1.956,3.168 1.956,5.118 0,0.873 -0.052,1.745 -0.079,2.618 -0.011,0.349 -0.051,0.701 -0.021,1.047 0.042,0.469 0.316,0.614 0.722,0.377 0.686,-0.399 1.188,-0.997 1.613,-1.653 C 0.512,21.786 0.514,21.56 0.51,21.371 0.413,16.613 0.313,11.855 0.205,7.097 0.157,4.941 0.092,2.786 0.033,0.631 0.028,0.438 0.013,0.245 0,0"
             style="fill:#ffffff;fill-opacity:1;fill-rule:nonzero;stroke:none"
             id="path40" />
        </g>
        <g
           id="g42"
           transform="translate(11.6507,65.5387)">
          <path
             d="m 0,0 c -0.021,0.444 -0.049,0.848 -0.058,1.254 -0.107,4.778 -0.21,9.556 -0.318,14.333 -0.044,1.923 -0.106,3.845 -0.14,5.768 -0.005,0.237 0.045,0.529 0.185,0.704 0.387,0.482 0.83,0.92 1.261,1.365 0.092,0.095 0.223,0.159 0.346,0.212 0.347,0.149 0.579,0.045 0.637,-0.333 0.046,-0.302 0.038,-0.621 0.003,-0.926 -0.15,-1.319 -0.153,-2.633 0.012,-3.952 0.126,-1.005 0.49,-1.914 1.002,-2.772 0.674,-1.127 1.541,-2.097 2.506,-2.98 2.617,-2.394 5.619,-4.151 8.972,-5.292 2.15,-0.732 4.329,-1.374 6.478,-2.108 1.062,-0.362 2.115,-0.781 3.118,-1.282 1.75,-0.875 3.049,-2.258 4.07,-3.908 0.53,-0.858 0.805,-1.816 0.943,-2.798 0.237,-1.691 0.443,-3.388 0.603,-5.088 0.213,-2.262 0.377,-4.529 0.548,-6.795 0.16,-2.128 0.301,-4.258 0.46,-6.518 -0.204,0.245 -0.337,0.395 -0.459,0.554 -3.675,4.77 -7.863,9.022 -12.752,12.559 C 12.538,-4.472 7.222,-1.846 1.371,-0.344 1.146,-0.286 0.92,-0.229 0.694,-0.172 0.488,-0.12 0.282,-0.07 0,0"
             style="fill:#ffffff;fill-opacity:1;fill-rule:nonzero;stroke:none"
             id="path44" />
        </g>
        <g
           id="g46"
           transform="translate(78.9468,7.9019)">
          <path
             d="m 0,0 h -3.903 c 0.05,0.445 0.083,0.861 0.145,1.272 0.659,4.409 1.748,8.711 3.253,12.906 3.183,8.868 7.767,16.923 14.048,23.978 4.062,4.564 8.689,8.441 14.064,11.39 3.043,1.669 6.233,2.974 9.597,3.844 0.185,0.048 0.374,0.084 0.581,0.13 V 48.666 C 37.019,48.461 36.306,48.285 35.6,48.08 30.563,46.624 26.078,44.125 22.008,40.854 17.249,37.029 13.346,32.445 10.074,27.315 5.485,20.117 2.325,12.336 0.643,3.964 0.513,3.317 0.402,2.666 0.297,2.015 0.192,1.364 0.104,0.711 0,0"
             style="fill:#ffffff;fill-opacity:1;fill-rule:nonzero;stroke:none"
             id="path48" />
        </g>
        <g
           id="g50"
           transform="translate(53.3797,8.623)">
          <path
             d="M 0,0 H -3.883 C -3.994,0.708 -4.1,1.396 -4.21,2.083 c -0.937,5.845 -2.715,11.433 -5.171,16.81 -2.863,6.264 -6.536,12.001 -11.241,17.053 -3.495,3.753 -7.436,6.944 -11.986,9.35 -2.688,1.423 -5.503,2.518 -8.471,3.207 -0.186,0.043 -0.366,0.108 -0.603,0.18 v 4.888 c 0.892,-0.258 1.771,-0.491 2.636,-0.767 5.684,-1.815 10.74,-4.762 15.318,-8.556 5.411,-4.484 9.83,-9.822 13.502,-15.79 4.341,-7.055 7.472,-14.61 9.254,-22.705 C -0.576,3.955 -0.32,2.126 -0.002,0.311 0.014,0.22 0,0.124 0,0"
             style="fill:#ffffff;fill-opacity:1;fill-rule:nonzero;stroke:none"
             id="path52" />
        </g>
        <g
           id="g54"
           transform="translate(51.3428,28.8406)">
          <path
             d="m 0,0 c -0.505,1.07 -0.971,2.16 -1.523,3.204 -1.071,2.025 -2.184,4.026 -3.296,6.028 -0.175,0.316 -0.275,0.624 -0.3,0.984 -0.175,2.498 -0.369,4.994 -0.552,7.492 -0.132,1.8 -0.234,3.603 -0.389,5.401 -0.299,3.48 -0.596,6.961 -0.958,10.435 -0.161,1.545 -0.507,3.065 -1.283,4.446 -0.169,0.3 -0.35,0.593 -0.581,0.982 0.236,-0.079 0.379,-0.115 0.512,-0.174 2.016,-0.889 3.583,-2.294 4.775,-4.135 0.637,-0.985 0.951,-2.086 1.102,-3.225 0.235,-1.769 0.442,-3.544 0.601,-5.321 0.248,-2.784 0.452,-5.571 0.663,-8.358 0.143,-1.878 0.257,-3.757 0.396,-5.635 0.173,-2.323 0.36,-4.644 0.537,-6.967 0.13,-1.719 0.254,-3.439 0.38,-5.159 C 0.056,-0.001 0.028,-0.001 0,0"
             style="fill:#ffffff;fill-opacity:1;fill-rule:nonzero;stroke:none"
             id="path56" />
        </g>
        <g
           id="g58"
           transform="translate(77.0105,28.1425)">
          <path
             d="m 0,0 c 0.057,0.807 0.11,1.615 0.173,2.422 0.138,1.8 0.285,3.6 0.421,5.4 0.188,2.478 0.372,4.956 0.555,7.435 0.129,1.762 0.248,3.524 0.381,5.286 0.259,3.446 0.501,6.892 0.937,10.322 0.497,3.913 2.742,6.433 6.23,8.004 0.049,0.022 0.104,0.03 0.226,0.065 C 8.882,38.824 8.869,38.754 8.833,38.702 7.893,37.343 7.416,35.808 7.211,34.196 6.937,32.04 6.698,29.879 6.506,27.715 6.253,24.872 6.056,22.025 5.843,19.179 5.704,17.32 5.581,15.46 5.449,13.601 5.366,12.439 5.293,11.276 5.188,10.116 5.163,9.836 5.084,9.534 4.94,9.296 3.185,6.381 1.619,3.369 0.229,0.264 0.185,0.166 0.131,0.072 0.082,-0.024 0.055,-0.016 0.027,-0.008 0,0"
             style="fill:#ffffff;fill-opacity:1;fill-rule:nonzero;stroke:none"
             id="path60" />
        </g>
        <g
           id="g62"
           transform="translate(59.3294,8.6164)">
          <path
             d="m 0,0 h -2.333 c -0.083,0.553 -0.148,1.106 -0.249,1.652 -0.543,2.946 -0.741,5.929 -0.977,8.908 -0.245,3.097 -0.515,6.191 -0.764,9.287 -0.141,1.742 -0.26,3.485 -0.393,5.228 -0.178,2.342 -0.364,4.684 -0.54,7.026 -0.132,1.762 -0.249,3.525 -0.379,5.287 -0.182,2.459 -0.359,4.919 -0.559,7.376 -0.146,1.799 -0.308,3.598 -0.497,5.393 -0.095,0.906 -0.265,1.804 -0.403,2.705 -0.025,0.17 -0.056,0.339 0,0.579 0.148,-0.131 0.302,-0.256 0.445,-0.393 1.412,-1.357 2.255,-3.004 2.475,-4.95 0.253,-2.237 0.507,-4.474 0.713,-6.716 0.248,-2.706 0.45,-5.417 0.664,-8.127 0.177,-2.245 0.333,-4.491 0.514,-6.736 0.208,-2.593 0.434,-5.185 0.651,-7.777 0.17,-2.032 0.33,-4.064 0.507,-6.095 0.212,-2.436 0.438,-4.872 0.656,-7.308 C -0.313,3.581 -0.16,1.823 0,0"
             style="fill:#ffffff;fill-opacity:1;fill-rule:nonzero;stroke:none"
             id="path64" />
        </g>
        <g
           id="g66"
           transform="translate(76.3059,61.3836)">
          <path
             d="m 0,0 c -0.106,-0.618 -0.218,-1.148 -0.284,-1.683 -0.193,-1.58 -0.403,-3.159 -0.541,-4.743 -0.251,-2.883 -0.46,-5.768 -0.677,-8.653 -0.14,-1.859 -0.258,-3.72 -0.396,-5.579 -0.173,-2.343 -0.357,-4.685 -0.536,-7.028 -0.126,-1.645 -0.249,-3.291 -0.379,-4.937 -0.183,-2.322 -0.372,-4.645 -0.559,-6.967 -0.17,-2.11 -0.358,-4.218 -0.504,-6.33 -0.136,-1.978 -0.418,-3.935 -0.744,-5.888 -0.09,-0.534 -0.155,-1.072 -0.243,-1.689 -0.771,-0.018 -1.532,-0.022 -2.333,0.005 0.042,0.546 0.074,1.027 0.118,1.506 0.214,2.34 0.438,4.678 0.647,7.018 0.179,2.012 0.342,4.025 0.514,6.037 0.216,2.534 0.437,5.068 0.65,7.602 0.131,1.567 0.253,3.135 0.377,4.703 0.187,2.362 0.374,4.723 0.558,7.085 0.133,1.723 0.248,3.447 0.394,5.169 0.258,3.037 0.473,6.077 0.92,9.096 0.294,1.99 1.177,3.637 2.641,4.992 C -0.283,-0.196 -0.171,-0.128 0,0"
             style="fill:#ffffff;fill-opacity:1;fill-rule:nonzero;stroke:none"
             id="path68" />
        </g>
        <g
           id="g70"
           transform="translate(207.3699,35.9344)">
          <path
             d="M 0,0 V 6.227 H -10.543 V 23.82 h -7.873 V 0 Z"
             style="fill:#ffffff;fill-opacity:1;fill-rule:nonzero;stroke:none"
             id="path72" />
        </g>
        <g
           id="g74"
           transform="translate(183.2434,35.9344)">
          <path
             d="M 0,0 V 6.227 H -10.543 V 23.82 h -7.873 V 0 Z"
             style="fill:#ffffff;fill-opacity:1;fill-rule:nonzero;stroke:none"
             id="path76" />
        </g>
        <path
           d="m 159.117,59.754 h -7.874 v -23.82 h 7.874 z"
           style="fill:#ffffff;fill-opacity:1;fill-rule:nonzero;stroke:none"
           id="path78" />
        <path
           d="m 138.193,51.315 h -8.341 v -6.601 h 8.341 z"
           style="fill:#ffffff;fill-opacity:1;fill-rule:nonzero;stroke:none"
           id="path80" />
        <path
           d="m 130.386,59.754 h -7.874 v -23.82 h 7.874 z"
           style="fill:#ffffff;fill-opacity:1;fill-rule:nonzero;stroke:none"
           id="path82" />
        <path
           d="m 137.659,35.934 h 7.874 v 23.82 h -7.874 z"
           style="fill:#ffffff;fill-opacity:1;fill-rule:nonzero;stroke:none"
           id="path84" />
        <g
           id="g86"
           transform="translate(229.2944,36.4959)">
          <path
             d="m 0,0 c 1.601,0.737 2.808,1.713 3.62,2.926 0.811,1.214 1.218,2.547 1.218,3.999 0,1.247 -0.234,2.291 -0.701,3.13 -0.467,0.839 -1.084,1.52 -1.852,2.042 -0.767,0.522 -1.607,0.941 -2.519,1.259 -0.912,0.318 -1.829,0.567 -2.752,0.749 -0.923,0.181 -1.768,0.351 -2.536,0.51 -0.767,0.159 -1.384,0.357 -1.852,0.596 -0.467,0.238 -0.7,0.561 -0.7,0.969 0,0.273 0.094,0.522 0.284,0.749 0.188,0.227 0.505,0.408 0.95,0.545 0.445,0.136 1.046,0.204 1.802,0.204 1.023,0 2.074,-0.148 3.153,-0.443 1.078,-0.295 2.196,-0.737 3.353,-1.327 l 2.369,5.819 c -1.224,0.703 -2.603,1.225 -4.137,1.565 -1.535,0.341 -3.092,0.511 -4.671,0.511 -2.403,0 -4.41,-0.363 -6.022,-1.089 -1.613,-0.726 -2.825,-1.696 -3.637,-2.91 -0.812,-1.213 -1.218,-2.557 -1.218,-4.032 0,-1.271 0.234,-2.331 0.701,-3.182 0.467,-0.85 1.084,-1.537 1.852,-2.058 0.767,-0.522 1.612,-0.942 2.535,-1.259 0.923,-0.318 1.84,-0.573 2.753,-0.766 0.912,-0.193 1.751,-0.374 2.519,-0.544 0.767,-0.171 1.384,-0.381 1.851,-0.63 0.467,-0.25 0.701,-0.59 0.701,-1.021 0,-0.272 -0.1,-0.505 -0.3,-0.697 C -3.436,5.422 -3.754,5.274 -4.187,5.172 -4.621,5.07 -5.216,5.019 -5.972,5.019 c -1.29,0 -2.619,0.198 -3.987,0.596 -1.368,0.396 -2.608,0.924 -3.72,1.582 l -2.536,-5.853 c 1.179,-0.726 2.68,-1.316 4.505,-1.769 1.823,-0.454 3.714,-0.681 5.671,-0.681 2.424,0 4.437,0.369 6.039,1.106"
             style="fill:#ffffff;fill-opacity:1;fill-rule:nonzero;stroke:none"
             id="path88" />
        </g>
        <g
           id="g90"
           transform="translate(122.8923,7.7021)">
          <path
             d="M 0,0 V 26.155 H 6.132 L 14.981,9.08 h -3.223 l 8.597,17.075 h 6.132 L 26.551,0 h -6.796 l -0.064,14.05 h 1.075 L 14.886,2.354 H 11.599 L 5.468,14.05 H 6.795 V 0 Z"
             style="fill:#ffffff;fill-opacity:1;fill-rule:nonzero;stroke:none"
             id="path92" />
        </g>
        <path
           d="m 161.984,24.142 h 9.862 v -6.351 h -9.862 z m 0.506,-9.788 h 11.063 V 7.702 h -18.395 v 26.155 h 17.984 v -6.65 H 162.49 Z"
           style="fill:#ffffff;fill-opacity:1;fill-rule:nonzero;stroke:none"
           id="path94" />
        <g
           id="g96"
           transform="translate(185.7515,14.5773)">
          <path
             d="m 0,0 h 3.129 c 1.053,0 1.976,0.237 2.765,0.71 0.791,0.473 1.407,1.177 1.85,2.11 0.442,0.935 0.663,2.074 0.663,3.42 0,1.319 -0.221,2.441 -0.663,3.363 -0.443,0.921 -1.059,1.619 -1.85,2.092 -0.789,0.473 -1.712,0.71 -2.765,0.71 L 0,12.405 Z M -7.459,-6.875 V 19.28 H 3.445 c 2.465,0 4.636,-0.529 6.511,-1.587 1.875,-1.06 3.34,-2.561 4.393,-4.504 C 15.402,11.246 15.93,8.931 15.93,6.24 15.93,3.524 15.402,1.189 14.349,-0.766 13.296,-2.721 11.831,-4.228 9.956,-5.288 8.081,-6.346 5.91,-6.875 3.445,-6.875 Z"
             style="fill:#ffffff;fill-opacity:1;fill-rule:nonzero;stroke:none"
             id="path98" />
        </g>
        <path
           d="m 205.446,33.857 h 7.459 V 7.702 h -7.459 z"
           style="fill:#ffffff;fill-opacity:1;fill-rule:nonzero;stroke:none"
           id="path100" />
        <g
           id="g102"
           transform="translate(222.4222,12.2602)">
          <path
             d="M 0,0 1.896,6.352 H 12.074 L 13.97,0 Z m -5.753,-4.558 9.672,26.155 h 7.333 L 20.924,-4.558 H 13.212 L 6.068,17.413 H 8.976 L 1.833,-4.558 Z"
             style="fill:#ffffff;fill-opacity:1;fill-rule:nonzero;stroke:none"
             id="path104" />
        </g>
      </g>
    </g>
  </g>
</svg>
