<?xml version="1.0" encoding="UTF-8" standalone="no"?>
<!-- Created with Inkscape (http://www.inkscape.org/) -->

<svg
   version="1.1"
   id="svg2"
   width="826.66669"
   height="826.66669"
   viewBox="0 0 826.66669 826.66669"
   sodipodi:docname="Red Hills final square black.ai"
   xmlns:inkscape="http://www.inkscape.org/namespaces/inkscape"
   xmlns:sodipodi="http://sodipodi.sourceforge.net/DTD/sodipodi-0.dtd"
   xmlns="http://www.w3.org/2000/svg"
   xmlns:svg="http://www.w3.org/2000/svg">
  <defs
     id="defs6">
    <clipPath
       clipPathUnits="userSpaceOnUse"
       id="clipPath16">
      <path
         d="M 0,620 H 620 V 0 H 0 Z"
         id="path14" />
    </clipPath>
  </defs>
  <sodipodi:namedview
     id="namedview4"
     pagecolor="#ffffff"
     bordercolor="#000000"
     borderopacity="0.25"
     inkscape:showpageshadow="2"
     inkscape:pageopacity="0.0"
     inkscape:pagecheckerboard="0"
     inkscape:deskcolor="#d1d1d1" />
  <g
     id="g8"
     inkscape:groupmode="layer"
     inkscape:label="Red Hills final square black"
     transform="matrix(1.3333333,0,0,-1.3333333,0,826.66667)">
    <g
       id="g10">
      <g
         id="g12"
         clip-path="url(#clipPath16)">
        <g
           id="g18"
           transform="translate(232.7355,114.6929)">
          <path
             d="m 0,0 h -133.548 c -0.057,1.166 -0.134,2.259 -0.162,3.353 -0.409,16.467 -0.808,32.934 -1.217,49.401 -0.314,12.63 -0.642,25.26 -0.957,37.89 -0.291,11.67 -0.568,23.341 -0.862,35.012 -0.456,18.065 -0.922,36.13 -1.38,54.196 -0.022,0.87 -0.003,1.742 -0.003,2.948 0.98,-0.223 1.798,-0.369 2.592,-0.597 14.664,-4.212 28.122,-10.937 40.636,-19.601 17.943,-12.422 32.98,-27.821 45.852,-45.345 C -26.203,86.152 -10.745,51.679 -2.559,13.962 -1.579,9.449 -0.886,4.873 0,0"
             style="fill:#000000;fill-opacity:1;fill-rule:nonzero;stroke:none"
             id="path20" />
        </g>
        <g
           id="g22"
           transform="translate(517.6732,114.679)">
          <path
             d="m 0,0 h -133.031 c 0.176,1.343 0.278,2.578 0.508,3.788 8.479,44.703 26.793,84.891 55.534,120.207 13.275,16.313 28.689,30.295 46.798,41.159 9.919,5.95 20.398,10.643 31.495,13.93 0.971,0.288 1.96,0.512 3.257,0.847 C 3.037,119.811 1.522,60.037 0,0"
             style="fill:#000000;fill-opacity:1;fill-rule:nonzero;stroke:none"
             id="path24" />
        </g>
        <g
           id="g26"
           transform="translate(398.6234,256.4174)">
          <path
             d="m 0,0 c 0.348,5.072 0.662,9.844 1.007,14.613 0.404,5.581 0.783,11.164 1.266,16.739 1.116,12.899 2.245,25.798 3.472,38.688 0.272,2.853 0.901,5.681 1.491,8.494 1.506,7.177 5.691,12.777 10.754,17.805 4.562,4.531 10.021,7.706 16.035,9.826 6.326,2.23 12.78,4.094 19.134,6.249 6.807,2.308 13.663,4.521 20.319,7.217 12.748,5.165 23.997,12.686 33.603,22.58 1.223,1.26 2.345,2.624 3.456,3.986 4.902,6.007 7.856,12.788 7.896,20.638 0.018,3.671 -0.195,7.344 -0.303,11.016 -0.042,1.437 -0.213,2.884 -0.098,4.309 0.154,1.91 1.307,2.522 2.985,1.566 1.095,-0.624 2.072,-1.494 2.996,-2.367 0.927,-0.875 1.717,-1.894 2.576,-2.842 1.134,-1.251 1.504,-2.669 1.459,-4.389 -0.306,-11.671 -0.484,-23.346 -0.757,-35.018 -0.395,-16.868 -0.834,-33.734 -1.258,-50.601 -0.014,-0.555 -0.069,-1.109 -0.11,-1.753 -0.454,-0.183 -0.869,-0.418 -1.315,-0.521 C 94.013,79.144 67.119,64.743 42.992,44.893 27.665,32.282 14.171,17.906 2.063,2.205 1.624,1.636 1.185,1.066 0.731,0.508 0.637,0.392 0.48,0.328 0,0"
             style="fill:#000000;fill-opacity:1;fill-rule:nonzero;stroke:none"
             id="path28" />
        </g>
        <g
           id="g30"
           transform="translate(217.868,259.418)">
          <path
             d="m 0,0 c -0.858,1.044 -1.41,1.68 -1.924,2.344 -14.06,18.184 -29.938,34.559 -48.294,48.456 -21.208,16.057 -44.479,27.929 -70.338,34.516 -1.623,0.413 -3.251,0.81 -5.14,1.28 -0.091,1.646 -0.228,3.299 -0.265,4.955 -0.285,12.71 -0.541,25.421 -0.824,38.131 -0.309,13.908 -0.638,27.817 -0.959,41.725 -0.003,0.16 0.019,0.324 -0.012,0.479 -1.176,5.95 3.015,8.837 6.892,11.774 1.616,1.223 2.907,0.456 3.102,-1.608 0.111,-1.182 0.027,-2.4 -0.115,-3.584 -0.699,-5.833 -0.616,-11.655 0.291,-17.45 0.537,-3.434 1.925,-6.58 3.672,-9.571 2.852,-4.883 6.568,-9.055 10.722,-12.842 10.602,-9.665 22.731,-16.811 36.276,-21.469 8.911,-3.064 17.948,-5.758 26.887,-8.744 3.706,-1.238 7.378,-2.638 10.931,-4.26 7.943,-3.626 13.973,-9.457 18.607,-16.795 C -8.183,83.682 -6.965,79.61 -6.37,75.408 -5.385,68.45 -4.522,61.466 -3.892,54.467 -2.853,42.925 -2.019,31.364 -1.141,19.808 -0.687,13.83 -0.32,7.846 0.075,1.864 0.104,1.423 0.043,0.976 0,0"
             style="fill:#000000;fill-opacity:1;fill-rule:nonzero;stroke:none"
             id="path32" />
        </g>
        <g
           id="g34"
           transform="translate(263.3181,114.7215)">
          <path
             d="m 0,0 h -15.881 c -0.66,3.807 -1.266,7.503 -1.944,11.185 -4.492,24.367 -12.432,47.596 -23.245,69.853 -11.679,24.043 -26.317,46.087 -44.769,65.504 -16.02,16.858 -34.168,30.835 -55.361,40.656 -8.802,4.079 -17.911,7.276 -27.358,9.503 -0.76,0.179 -1.501,0.44 -2.446,0.721 v 19.913 c 0.883,-0.192 1.717,-0.343 2.535,-0.558 22.817,-5.98 43.413,-16.509 62.282,-30.53 22.251,-16.534 40.734,-36.675 56.358,-59.477 C -27.662,94.42 -12.102,59.146 -3.562,20.839 -2.155,14.528 -1.17,8.122 -0.013,1.756 0.083,1.229 0,0.67 0,0"
             style="fill:#000000;fill-opacity:1;fill-rule:nonzero;stroke:none"
             id="path36" />
        </g>
        <g
           id="g38"
           transform="translate(524.502,329.0673)">
          <path
             d="M 0,0 C 0.057,-0.932 0.135,-1.562 0.129,-2.191 0.075,-7.39 0.013,-12.589 -0.064,-17.788 c -0.033,-2.241 -0.067,-2.285 -2.117,-2.769 -22.247,-5.25 -42.072,-15.467 -60.068,-29.391 -18.583,-14.378 -34.085,-31.638 -47.274,-51.008 -20.953,-30.775 -35.255,-64.404 -42.931,-100.837 -0.774,-3.674 -1.341,-7.391 -2.009,-11.087 -0.083,-0.458 -0.201,-0.91 -0.326,-1.47 h -15.875 c 0.074,0.992 0.074,1.92 0.22,2.823 3.946,24.274 11.075,47.606 20.955,70.1 13.656,31.092 31.641,59.373 55.07,84.065 16.759,17.664 35.664,32.533 57.413,43.637 11.142,5.689 22.746,10.191 34.881,13.285 C -1.517,-0.285 -0.896,-0.184 0,0"
             style="fill:#000000;fill-opacity:1;fill-rule:nonzero;stroke:none"
             id="path40" />
        </g>
        <g
           id="g42"
           transform="translate(373.1328,517.9304)">
          <path
             d="m 0,0 v -36.018 c 0.363,-0.138 0.58,-0.291 0.797,-0.291 3.917,-0.001 7.85,-0.203 11.749,0.077 7.291,0.522 12.788,5.325 14.174,12.517 0.581,3.018 0.73,6.227 0.427,9.285 C 26.317,-6.052 20.5,-0.347 12.325,0.234 8.506,0.505 4.652,0.293 0.815,0.283 0.596,0.283 0.378,0.136 0,0 m -24.054,-56.237 v 76.423 c 0.765,0.061 1.453,0.164 2.141,0.165 11.271,0.009 22.543,0.033 33.815,-0.005 7.631,-0.025 14.946,-1.512 21.635,-5.322 10.2,-5.81 16.017,-14.629 17.627,-26.236 0.912,-6.572 0.686,-13.104 -1.28,-19.459 -3.982,-12.868 -12.922,-20.58 -25.682,-24.136 -4.178,-1.164 -8.47,-1.579 -12.808,-1.574 -11.111,0.013 -22.223,-10e-4 -33.335,0.004 -0.624,0.001 -1.248,0.08 -2.113,0.14"
             style="fill:#000000;fill-opacity:1;fill-rule:nonzero;stroke:none"
             id="path44" />
        </g>
        <g
           id="g46"
           transform="translate(226.5257,500.3997)">
          <path
             d="m 0,0 c 3.959,0 7.646,-0.24 11.287,0.063 4.153,0.345 6.67,2.927 7.307,7.054 0.214,1.386 0.112,2.876 -0.132,4.268 -0.642,3.654 -2.974,5.979 -6.561,6.361 C 8.113,18.149 4.255,17.906 0.428,17.929 0.31,17.93 0.192,17.744 0,17.585 Z m 29.488,-15.367 c 4.952,-7.783 9.785,-15.38 14.781,-23.232 -0.79,-0.11 -1.297,-0.242 -1.803,-0.243 -7.28,-0.013 -14.56,0.027 -21.839,-0.042 -1.392,-0.013 -2.164,0.492 -2.869,1.636 -3.275,5.309 -6.679,10.538 -9.921,15.866 -0.862,1.418 -1.841,2.021 -3.473,1.872 -1.339,-0.123 -2.699,-0.025 -4.358,-0.025 -0.249,-3.317 -0.096,-6.486 -0.124,-9.645 -0.026,-3.104 -0.005,-6.209 -0.005,-9.248 -2.007,-0.505 -19.821,-0.66 -23.628,-0.264 -0.059,0.048 -0.125,0.089 -0.176,0.144 -0.053,0.059 -0.124,0.129 -0.13,0.199 -0.062,0.712 -0.161,1.424 -0.161,2.137 0.005,24.399 0.02,48.797 0.044,73.196 0,0.221 0.155,0.442 0.328,0.905 h 2.273 c 10.64,0 21.28,-0.01 31.92,0.003 5.573,0.006 11.025,-0.715 16.159,-2.969 9.693,-4.257 15.12,-11.672 16.278,-22.234 0.478,-4.358 0.165,-8.625 -1.04,-12.82 -1.63,-5.67 -4.938,-10.16 -9.758,-13.546 -0.715,-0.502 -1.447,-0.98 -2.498,-1.69"
             style="fill:#000000;fill-opacity:1;fill-rule:nonzero;stroke:none"
             id="path48" />
        </g>
        <g
           id="g50"
           transform="translate(231.1681,379.6727)">
          <path
             d="m 0,0 h -23.664 c -0.262,3.044 -0.08,6.13 -0.113,9.203 -0.033,3.118 -0.007,6.236 -0.007,9.354 v 9.216 c -2.002,0.538 -18.687,0.696 -22.492,0.251 -0.341,-2.049 -0.127,-4.19 -0.162,-6.31 -0.036,-2.158 -0.008,-4.317 -0.008,-6.476 V 9.002 2.449 C -54.53,4.859 -62.38,7.2 -70.349,9.577 v 66.974 c 7.914,0.041 15.709,0.028 23.826,0.002 0.201,-9.04 -0.032,-17.953 0.126,-26.801 2.015,-0.622 20.086,-0.673 22.527,-0.052 v 26.376 c 1.963,0.608 18.827,0.808 23.609,0.354 C 0.28,74.679 0.537,6.331 0,0"
             style="fill:#000000;fill-opacity:1;fill-rule:nonzero;stroke:none"
             id="path52" />
        </g>
        <g
           id="g54"
           transform="translate(337.3798,538.0146)">
          <path
             d="m 0,0 v -19.069 h -34.362 c -0.247,-3.103 -0.131,-5.935 -0.077,-9.047 1.025,-0.081 1.943,-0.217 2.861,-0.218 8.157,-0.017 16.313,-0.011 24.47,-0.011 0.936,0 1.871,0 2.951,0 v -18.389 c -10.129,-0.083 -20.087,0.029 -30.189,-0.065 v -10.126 c 1.017,-0.074 2.016,-0.208 3.015,-0.21 9.916,-0.016 19.832,-0.006 29.748,-0.016 0.932,-10e-4 1.864,-0.091 2.913,-0.146 v -18.994 h -58.954 c -0.526,1.722 -0.756,71.772 -0.255,76.159 C -56.213,0.368 -3.416,0.522 0,0"
             style="fill:#000000;fill-opacity:1;fill-rule:nonzero;stroke:none"
             id="path56" />
        </g>
        <g
           id="g58"
           transform="translate(403.7055,385.86)">
          <path
             d="m 0,0 c 2.471,5.989 4.986,12.084 7.568,18.343 0.826,-0.414 1.456,-0.713 2.071,-1.04 6.514,-3.467 13.415,-5.623 20.822,-5.783 2.367,-0.051 4.77,0.321 7.112,0.744 1.66,0.299 2.965,1.374 3.151,3.191 0.198,1.932 -0.939,3.283 -2.614,3.885 -2.844,1.023 -5.769,1.833 -8.684,2.644 -4.151,1.156 -8.376,2.073 -12.468,3.402 -2.404,0.781 -4.719,1.987 -6.886,3.31 -5.763,3.515 -8.579,8.847 -9.008,15.507 -0.816,12.669 6.332,21.563 17.56,25.613 6.039,2.178 12.331,2.629 18.676,2.321 6.744,-0.328 13.333,-1.519 19.56,-4.263 1.453,-0.64 2.847,-1.412 4.521,-2.25 -2.398,-6.198 -4.743,-12.264 -7.176,-18.554 -0.937,0.416 -1.716,0.741 -2.477,1.102 -5.843,2.779 -11.92,4.656 -18.462,4.433 -1.809,-0.061 -3.647,-0.454 -5.385,-0.982 -0.92,-0.279 -1.826,-1.041 -2.432,-1.823 -1.282,-1.651 -0.871,-3.871 0.994,-4.968 1.423,-0.837 3.023,-1.478 4.627,-1.886 3.558,-0.904 7.175,-1.573 10.755,-2.399 4.217,-0.972 8.314,-2.289 12.119,-4.412 6.612,-3.687 10.173,-9.231 10.477,-16.86 C 64.649,13.565 63.3,8.361 59.948,3.687 59.016,2.387 57.909,1.638 56.312,1.237 46.474,-1.238 36.67,-3.843 27.16,-7.432 26.508,-7.678 25.755,-7.839 25.07,-7.783 16.701,-7.103 8.684,-5.141 1.265,-1.076 0.986,-0.923 0.719,-0.742 0.464,-0.552 0.342,-0.46 0.26,-0.314 0,0"
             style="fill:#000000;fill-opacity:1;fill-rule:nonzero;stroke:none"
             id="path60" />
        </g>
        <g
           id="g62"
           transform="translate(344.4477,456.1446)">
          <path
             d="m 0,0 h 23.586 c 0.269,-6.291 0.086,-12.499 0.119,-18.702 0.033,-6.319 0.007,-12.638 0.007,-18.957 v -19.003 c 5.595,-0.069 10.922,-0.025 16.247,-0.033 5.333,-0.008 10.667,-10e-4 16.135,-10e-4 V -76.458 H 0.164 C -0.313,-74.723 -0.489,-3.943 0,0"
             style="fill:#000000;fill-opacity:1;fill-rule:nonzero;stroke:none"
             id="path64" />
        </g>
        <g
           id="g66"
           transform="translate(304.282,399.4532)">
          <path
             d="m 0,0 h 32.469 c 0.099,-6.691 0.039,-13.118 0.041,-19.49 -2.039,-0.52 -50.793,-0.726 -55.992,-0.291 -0.586,1.707 -0.868,70.245 -0.313,76.134 1.682,0.553 18.198,0.767 23.707,0.273 0.196,-3.022 0.057,-6.108 0.082,-9.184 C 0.02,44.323 0,41.204 0,38.085 V 28.488 19.13 9.773 C 0,6.665 0,3.556 0,0"
             style="fill:#000000;fill-opacity:1;fill-rule:nonzero;stroke:none"
             id="path68" />
        </g>
        <g
           id="g70"
           transform="translate(397.5374,352.1396)">
          <path
             d="m 0,0 c -2.326,-3.826 -4.455,-7.715 -5.337,-12.05 -1.193,-5.864 -2.364,-11.769 -2.937,-17.715 -1.441,-14.958 -2.585,-29.945 -3.763,-44.927 -0.784,-9.963 -1.416,-19.938 -2.123,-29.907 -0.329,-4.625 -0.625,-9.254 -1.052,-13.871 -0.106,-1.152 -0.448,-2.39 -1.039,-3.374 -7.257,-12.077 -13.759,-24.543 -19.468,-37.423 -0.123,-0.278 -0.299,-0.532 -0.81,-0.765 0.052,1.052 0.078,2.106 0.157,3.156 0.951,12.596 1.924,25.19 2.862,37.787 0.979,13.155 1.891,26.315 2.899,39.468 0.899,11.717 1.82,23.434 2.874,35.138 0.444,4.93 1.183,9.838 1.914,14.737 1.519,10.172 7.251,17.747 15.071,23.96 C -7.55,-3.242 -3.967,-1.332 0,0"
             style="fill:#000000;fill-opacity:1;fill-rule:nonzero;stroke:none"
             id="path72" />
        </g>
        <g
           id="g74"
           transform="translate(219.0219,355.4376)">
          <path
             d="m 0,0 c 6.678,-2.645 12.068,-6.45 16.752,-11.415 6.096,-6.463 9.054,-14.21 9.913,-22.882 1.025,-10.339 2.081,-20.677 2.929,-31.032 1.076,-13.147 1.949,-26.31 2.923,-39.466 0.949,-12.837 1.904,-25.673 2.88,-38.508 0.376,-4.942 0.824,-9.878 1.218,-14.819 0.062,-0.769 0.009,-1.546 0.009,-2.778 -0.502,0.984 -0.842,1.581 -1.121,2.205 -5.512,12.353 -11.734,24.337 -18.756,35.899 -0.904,1.488 -1.324,2.993 -1.443,4.725 -0.694,10.13 -1.491,20.252 -2.236,30.378 -0.539,7.336 -0.962,14.681 -1.593,22.009 -1.24,14.414 -2.497,28.827 -3.943,43.221 -0.51,5.082 -1.541,10.132 -3.635,14.852 C 2.8,-5.139 1.438,-2.786 0,0"
             style="fill:#000000;fill-opacity:1;fill-rule:nonzero;stroke:none"
             id="path76" />
        </g>
        <g
           id="g78"
           transform="translate(110.9358,58.5486)">
          <path
             d="m 0,0 h -15.738 c -0.558,1.735 -0.699,45.538 -0.124,48.661 1.345,0 2.758,0 4.171,0 2.719,0 5.443,-0.107 8.154,0.04 1.59,0.087 2.459,-0.535 3.292,-1.798 4.845,-7.339 9.762,-14.629 14.661,-21.932 0.473,-0.705 0.991,-1.379 1.646,-2.286 0.663,0.964 1.17,1.668 1.642,2.393 4.711,7.235 9.446,14.455 14.097,21.728 0.868,1.357 1.809,1.963 3.469,1.895 3.353,-0.136 6.715,-0.034 10.074,-0.045 0.705,-0.003 1.409,-0.067 2.333,-0.114 V 0.286 C 46.096,-0.173 35.712,-0.319 31.731,0.129 v 21.138 c -0.199,0.077 -0.398,0.154 -0.597,0.232 C 30.73,21.003 30.277,20.539 29.929,20.007 26.91,15.39 23.862,10.791 20.934,6.118 20.068,4.735 19.098,4.076 17.449,4.25 16.184,4.384 14.887,4.354 13.615,4.256 12.332,4.157 11.573,4.685 10.879,5.733 7.966,10.132 4.978,14.481 2.008,18.843 1.571,19.485 1.085,20.095 0.371,20.671 -0.143,18.383 0.04,16.109 0.007,13.853 -0.025,11.614 0,9.375 0,7.136 0,4.835 0,2.535 0,0"
             style="fill:#000000;fill-opacity:1;fill-rule:nonzero;stroke:none"
             id="path80" />
        </g>
        <g
           id="g82"
           transform="translate(287.962,114.6809)">
          <path
             d="m 0,0 h -9.66 c -0.398,2.501 -0.726,5.015 -1.204,7.5 -2.092,10.863 -2.504,21.9 -3.454,32.881 -0.929,10.749 -1.826,21.502 -2.686,32.258 -0.738,9.242 -1.398,18.491 -2.103,27.736 -0.729,9.564 -1.484,19.125 -2.204,28.69 -0.533,7.094 -1.014,14.192 -1.545,21.286 -0.925,12.354 -1.784,24.714 -2.841,37.057 -0.668,7.799 -1.619,15.575 -2.504,23.354 -0.23,2.026 -0.689,4.026 -1.119,6.47 0.696,-0.487 1.037,-0.669 1.309,-0.925 5.48,-5.182 9.575,-11.179 10.673,-18.819 0.898,-6.245 1.799,-12.497 2.406,-18.775 1.04,-10.739 1.873,-21.498 2.749,-32.252 0.57,-7.01 1.043,-14.029 1.594,-21.041 0.726,-9.243 1.487,-18.483 2.233,-27.725 0.527,-6.533 1.033,-13.067 1.584,-19.598 0.9,-10.672 1.827,-21.341 2.746,-32.012 0.692,-8.043 1.375,-16.086 2.089,-24.128 C -1.387,15.748 -0.792,9.543 -0.226,3.335 -0.133,2.309 -0.085,1.279 0,0"
             style="fill:#000000;fill-opacity:1;fill-rule:nonzero;stroke:none"
             id="path84" />
        </g>
        <g
           id="g86"
           transform="translate(357.9846,328.5493)">
          <path
             d="m 0,0 c -0.508,-3.224 -1.132,-6.435 -1.5,-9.675 -0.831,-7.305 -1.636,-14.615 -2.265,-21.939 -0.863,-10.035 -1.571,-20.084 -2.314,-30.129 -0.56,-7.574 -1.051,-15.153 -1.611,-22.727 -0.719,-9.726 -1.478,-19.449 -2.217,-29.173 -0.533,-7.015 -1.043,-14.032 -1.596,-21.045 -0.729,-9.243 -1.49,-18.485 -2.238,-27.727 -0.522,-6.454 -1.08,-12.906 -1.563,-19.363 -0.762,-10.202 -1.586,-20.395 -3.498,-30.464 -0.1,-0.532 -0.313,-1.042 -0.489,-1.613 h -9.634 c 0.17,2.238 0.306,4.355 0.496,6.468 0.559,6.209 1.153,12.416 1.71,18.625 0.771,8.599 1.532,17.198 2.276,25.798 0.544,6.292 1.053,12.587 1.577,18.88 0.756,9.081 1.522,18.161 2.261,27.244 0.539,6.613 1.042,13.229 1.56,19.844 0.768,9.802 1.527,19.605 2.303,29.407 0.681,8.607 1.312,17.218 2.09,25.816 0.755,8.354 1.449,16.721 3.314,24.934 C -9.742,-9.812 -5.456,-4.583 0,0"
             style="fill:#000000;fill-opacity:1;fill-rule:nonzero;stroke:none"
             id="path88" />
        </g>
        <g
           id="g90"
           transform="translate(316.7552,71.2144)">
          <path
             d="M 0,0 C 4.184,-0.02 8.237,-0.53 12.223,0.525 17.48,1.917 20.404,6.006 20.38,11.759 20.356,17.373 17.459,21.34 12.228,22.733 8.242,23.795 4.186,23.246 0,23.249 Z m -17.743,35.995 c 1.87,0 3.625,0 5.38,0 7.276,0 14.553,0.032 21.829,-0.012 5.333,-0.033 10.486,-1.017 15.346,-3.295 12.087,-5.664 15.57,-16.959 12.645,-27.921 -1.592,-5.969 -5.48,-10.195 -10.759,-13.211 -4.972,-2.841 -10.417,-4.133 -16.066,-4.238 -9.113,-0.169 -18.23,-0.056 -27.345,-0.055 -0.313,0 -0.625,0.074 -0.917,0.111 -0.521,1.724 -0.656,45.42 -0.113,48.621"
             style="fill:#000000;fill-opacity:1;fill-rule:nonzero;stroke:none"
             id="path92" />
        </g>
        <g
           id="g94"
           transform="translate(267.6461,379.6696)">
          <path
             d="m 0,0 h -23.332 c -0.572,1.715 -0.841,70.644 -0.301,76.143 1.686,0.543 18.34,0.753 23.365,0.296 C 0.284,74.703 0.548,6.348 0,0"
             style="fill:#000000;fill-opacity:1;fill-rule:nonzero;stroke:none"
             id="path96" />
        </g>
        <g
           id="g98"
           transform="translate(247.5128,89.1352)">
          <path
             d="m 0,0 v -11.558 c -0.933,-0.061 -1.782,-0.163 -2.63,-0.166 -5.598,-0.014 -11.196,-10e-4 -16.793,-0.014 -0.941,-0.002 -1.882,-0.087 -2.949,-0.141 v -6.405 c 2.193,-0.324 4.413,-0.116 6.611,-0.154 2.159,-0.037 4.318,-0.008 6.478,-0.008 h 6.717 6.406 c 0.612,-1.867 0.685,-9.634 0.131,-12.085 h -43.875 v 48.222 c 1.743,0.466 39.027,0.644 43.136,0.182 C 3.43,14.038 3.303,10.163 3.309,6.167 1.02,5.585 -1.128,5.92 -3.245,5.862 -5.322,5.806 -7.403,5.85 -9.482,5.85 h -6.477 c -2.063,0 -4.126,0 -6.367,0 V 0 Z"
             style="fill:#000000;fill-opacity:1;fill-rule:nonzero;stroke:none"
             id="path100" />
        </g>
        <g
           id="g102"
           transform="translate(499.4069,78.7098)">
          <path
             d="M 0,0 C -0.572,2.959 -4,10.757 -5.107,11.799 -6.885,8.694 -9.596,1.827 -9.69,-0.006 -6.469,-0.099 -3.263,-0.147 0,0 m -36.834,-20.076 c 7.828,16.372 15.523,32.467 23.197,48.519 H 4.072 C 11.744,12.399 19.442,-3.699 27.276,-20.081 H 8.856 c -0.699,1.66 -1.472,3.556 -2.294,5.43 -1.513,3.449 -0.757,2.938 -4.481,2.958 -5.669,0.031 -11.339,0.008 -17.217,0.008 -0.956,-2.226 -2.012,-4.372 -2.795,-6.613 -0.547,-1.564 -1.396,-2.026 -3.01,-1.986 -4.472,0.112 -8.95,0.033 -13.426,0.045 -0.687,0.002 -1.375,0.088 -2.467,0.163"
             style="fill:#000000;fill-opacity:1;fill-rule:nonzero;stroke:none"
             id="path104" />
        </g>
        <g
           id="g106"
           transform="translate(419.3701,107.0732)">
          <path
             d="M 0,0 V -48.431 H -17.191 C -17.695,-46.613 -17.776,-2.589 -17.259,0 Z"
             style="fill:#000000;fill-opacity:1;fill-rule:nonzero;stroke:none"
             id="path108" />
        </g>
      </g>
    </g>
  </g>
</svg>
